<svg width="24" height="24" viewBox="0 0 24 24" fill="none" xmlns="http://www.w3.org/2000/svg">
<path d="M6.86098 4.30891C8.38203 3.29258 10.1703 2.75008 11.9996 2.75C14.4522 2.75254 16.8036 3.72795 18.5378 5.46219C20.2721 7.19651 21.2476 9.54805 21.25 12.0007C21.2499 13.83 20.7074 15.6181 19.6911 17.139C18.6747 18.6602 17.23 19.8458 15.5398 20.5459C13.8496 21.246 11.9897 21.4292 10.1954 21.0723C8.4011 20.7154 6.7529 19.8344 5.45927 18.5407C4.16563 17.2471 3.28465 15.5989 2.92774 13.8046C2.57083 12.0103 2.75401 10.1504 3.45412 8.46018C4.15423 6.76996 5.33982 5.32531 6.86098 4.30891Z" stroke="white" stroke-width="1.5"/>
<path d="M17.9391 9.71304V10.359C17.9391 10.4085 17.9292 10.4574 17.91 10.503C17.8908 10.5485 17.8626 10.5898 17.8272 10.6243C17.7918 10.6588 17.7498 10.6858 17.7038 10.7038C17.6577 10.7218 17.6085 10.7304 17.5591 10.729C16.5033 10.6542 15.4933 10.2687 14.6561 9.62104V14.349C14.656 14.8723 14.5516 15.3903 14.349 15.8728C14.1464 16.3553 13.8496 16.7926 13.4761 17.159C13.0992 17.5347 12.6514 17.8316 12.1587 18.0324C11.6659 18.2333 11.1382 18.3341 10.6061 18.329C9.53603 18.3272 8.50903 17.9073 7.7441 17.159C7.25749 16.6684 6.90699 16.0596 6.72709 15.3924C6.54719 14.7253 6.54409 14.0228 6.7181 13.354C6.8771 12.712 7.1981 12.122 7.6511 11.641C7.98893 11.2281 8.41477 10.8959 8.89749 10.6688C9.38021 10.4416 9.9076 10.3252 10.4411 10.328H11.2611V12.031C11.2615 12.0805 11.2513 12.1295 11.2312 12.1747C11.2112 12.2199 11.1817 12.2603 11.1448 12.2932C11.1079 12.3262 11.0644 12.3509 11.0172 12.3657C10.97 12.3804 10.9202 12.385 10.8711 12.379C10.395 12.236 9.88195 12.2835 9.44013 12.5114C8.99832 12.7392 8.66224 13.1298 8.50274 13.6006C8.34324 14.0714 8.37279 14.5858 8.58515 15.0353C8.79751 15.4848 9.17609 15.8343 9.6411 16.01C9.9111 16.165 10.2131 16.256 10.5231 16.277C10.7631 16.287 11.0031 16.257 11.2311 16.185C11.6119 16.0569 11.9431 15.813 12.1785 15.4874C12.4139 15.1618 12.5417 14.7708 12.5441 14.369V5.75404C12.544 5.70681 12.5532 5.66002 12.5711 5.61635C12.5891 5.57268 12.6155 5.53299 12.6489 5.49955C12.6822 5.4661 12.7219 5.43957 12.7655 5.42147C12.8091 5.40336 12.8559 5.39404 12.9031 5.39404H14.3181C14.4101 5.39391 14.4987 5.42912 14.5655 5.49239C14.6323 5.55566 14.6722 5.64216 14.6771 5.73404C14.7288 6.17523 14.8691 6.60144 15.0893 6.98718C15.3096 7.37292 15.6054 7.71027 15.9591 7.97904C16.4372 8.33793 17.005 8.558 17.6001 8.61504C17.6892 8.62267 17.7726 8.66232 17.8347 8.72667C17.8969 8.79102 17.9336 8.8757 17.9381 8.96504L17.9391 9.71304Z" fill="white"/>
</svg>
