<svg width="40" height="40" viewBox="0 0 40 40" fill="none" xmlns="http://www.w3.org/2000/svg">
<path d="M0.5 9.6C0.5 7.91159 0.500389 6.67536 0.580085 5.69993C0.659303 4.73034 0.814384 4.06255 1.09946 3.50305C1.62677 2.46816 2.46816 1.62677 3.50305 1.09946C4.06255 0.814384 4.73034 0.659303 5.69993 0.580085C6.67536 0.500389 7.91159 0.5 9.6 0.5H30.4C32.0884 0.5 33.3246 0.500389 34.3001 0.580085C35.2697 0.659303 35.9374 0.814384 36.4969 1.09946C37.5318 1.62677 38.3732 2.46816 38.9005 3.50305C39.1856 4.06255 39.3407 4.73034 39.4199 5.69993C39.4996 6.67536 39.5 7.91159 39.5 9.6V30.4C39.5 32.0884 39.4996 33.3246 39.4199 34.3001C39.3407 35.2697 39.1856 35.9374 38.9005 36.4969C38.3732 37.5318 37.5318 38.3732 36.4969 38.9005C35.9374 39.1856 35.2697 39.3407 34.3001 39.4199C33.3246 39.4996 32.0884 39.5 30.4 39.5H9.6C7.91159 39.5 6.67536 39.4996 5.69993 39.4199C4.73034 39.3407 4.06255 39.1856 3.50305 38.9005C2.46816 38.3732 1.62677 37.5318 1.09946 36.4969C0.814384 35.9374 0.659303 35.2697 0.580085 34.3001C0.500389 33.3246 0.5 32.0884 0.5 30.4V9.6Z" stroke="#191919"/>
<path d="M21.6667 11.6665L15 19.9998L21.6667 28.3332" stroke="#191919" stroke-width="1.5" stroke-linecap="round"/>
</svg>
