<svg width="24" height="24" viewBox="0 0 24 24" fill="none" xmlns="http://www.w3.org/2000/svg">
<path fill-rule="evenodd" clip-rule="evenodd" d="M12 3C9.5556 3 9.2496 3.0108 8.2893 3.054C7.3317 3.0981 6.6774 3.2502 6.105 3.4725C5.50424 3.69826 4.95998 4.0524 4.5102 4.5102C4.05242 4.96 3.69829 5.50425 3.4725 6.105C3.2502 6.6774 3.0981 7.3317 3.054 8.2893C3.0099 9.2496 3 9.5556 3 12C3 14.4444 3.0099 14.7504 3.054 15.7107C3.0981 16.6683 3.2502 17.3226 3.4725 17.895C3.69831 18.4957 4.05244 19.04 4.5102 19.4898C4.96001 19.9476 5.50426 20.3017 6.105 20.5275C6.6774 20.7498 7.3317 20.9019 8.2893 20.946C9.2496 20.9892 9.5556 21 12 21C14.4444 21 14.7504 20.9892 15.7107 20.946C16.6683 20.9019 17.3226 20.7498 17.895 20.5275C18.4957 20.3017 19.04 19.9476 19.4898 19.4898C19.9476 19.04 20.3017 18.4957 20.5275 17.895C20.7498 17.3226 20.9019 16.6683 20.946 15.7107C20.9892 14.7504 21 14.4444 21 12C21 9.5556 20.9892 9.2496 20.946 8.2893C20.9019 7.3317 20.7498 6.6774 20.5275 6.105C20.3017 5.50425 19.9476 4.96 19.4898 4.5102C19.04 4.0524 18.4958 3.69826 17.895 3.4725C17.3226 3.2502 16.6683 3.0981 15.7107 3.054C14.7504 3.0108 14.4444 3 12 3ZM12 4.6218C14.403 4.6218 14.6874 4.6308 15.636 4.674C16.5144 4.7145 16.9905 4.8603 17.3082 4.9836C17.7276 5.1474 18.0282 5.3427 18.3432 5.6568C18.6582 5.9718 18.8526 6.2724 19.0164 6.6918C19.1388 7.0095 19.2864 7.4856 19.326 8.3631C19.3692 9.3126 19.3782 9.5961 19.3782 12C19.3782 14.403 19.3692 14.6874 19.326 15.636C19.2855 16.5144 19.1388 16.9905 19.0164 17.3082C18.8721 17.6991 18.6421 18.0528 18.3432 18.3432C18.0282 18.6582 17.7276 18.8526 17.3082 19.0164C16.9905 19.1388 16.5144 19.2864 15.6369 19.326C14.6883 19.3692 14.4039 19.3782 12 19.3782C9.597 19.3782 9.3117 19.3692 8.364 19.326C7.4856 19.2855 7.0095 19.1388 6.6918 19.0164C6.30083 18.8722 5.94716 18.6421 5.6568 18.3432C5.35787 18.0528 5.12783 17.6992 4.9836 17.3082C4.8603 16.9905 4.7136 16.5144 4.674 15.6369C4.6308 14.6874 4.6218 14.4039 4.6218 12C4.6218 9.597 4.6308 9.3126 4.674 8.364C4.7145 7.4856 4.8603 7.0095 4.9836 6.6918C5.1474 6.2724 5.3427 5.9718 5.6568 5.6568C5.9718 5.3418 6.2724 5.1474 6.6918 4.9836C7.0095 4.8603 7.4856 4.7136 8.3631 4.674C9.3126 4.6308 9.5961 4.6218 12 4.6218ZM17.8842 7.1958C17.8842 7.33763 17.8563 7.47807 17.802 7.6091C17.7477 7.74013 17.6682 7.85919 17.5679 7.95948C17.4676 8.05976 17.3485 8.13932 17.2175 8.19359C17.0865 8.24787 16.946 8.2758 16.8042 8.2758C16.6624 8.2758 16.5219 8.24787 16.3909 8.19359C16.2599 8.13932 16.1408 8.05976 16.0405 7.95948C15.9402 7.85919 15.8607 7.74013 15.8064 7.6091C15.7521 7.47807 15.7242 7.33763 15.7242 7.1958C15.7242 6.90937 15.838 6.63466 16.0405 6.43212C16.2431 6.22959 16.5178 6.1158 16.8042 6.1158C17.0906 6.1158 17.3653 6.22959 17.5679 6.43212C17.7704 6.63466 17.8842 6.90937 17.8842 7.1958Z" fill="white"/>
<path fill-rule="evenodd" clip-rule="evenodd" d="M12.0004 14.9996C11.2048 14.9996 10.4419 14.6836 9.8793 14.121C9.31675 13.5585 9.00071 12.7955 9.00071 11.9999C9.00071 11.2043 9.31675 10.4414 9.8793 9.87881C10.4419 9.31626 11.2048 9.00022 12.0004 9.00022C12.796 9.00022 13.559 9.31626 14.1215 9.87881C14.6841 10.4414 15.0001 11.2043 15.0001 11.9999C15.0001 12.7955 14.6841 13.5585 14.1215 14.121C13.559 14.6836 12.796 14.9996 12.0004 14.9996ZM12.0004 7.37842C11.3935 7.37842 10.7925 7.49796 10.2318 7.73021C9.67113 7.96246 9.16166 8.30288 8.73251 8.73202C8.30337 9.16117 7.96295 9.67064 7.7307 10.2313C7.49845 10.7921 7.37891 11.393 7.37891 11.9999C7.37891 12.6068 7.49845 13.2078 7.7307 13.7685C7.96295 14.3292 8.30337 14.8387 8.73251 15.2678C9.16166 15.697 9.67113 16.0374 10.2318 16.2696C10.7925 16.5019 11.3935 16.6214 12.0004 16.6214C13.2261 16.6214 14.4016 16.1345 15.2683 15.2678C16.135 14.4011 16.6219 13.2256 16.6219 11.9999C16.6219 10.7742 16.135 9.59872 15.2683 8.73202C14.4016 7.86533 13.2261 7.37842 12.0004 7.37842Z" fill="white"/>
<path fill-rule="evenodd" clip-rule="evenodd" d="M17.8846 7.19621C17.8846 7.33804 17.8567 7.47848 17.8024 7.60951C17.7481 7.74054 17.6686 7.8596 17.5683 7.95989C17.468 8.06017 17.3489 8.13973 17.2179 8.194C17.0869 8.24828 16.9464 8.27621 16.8046 8.27621C16.6628 8.27621 16.5223 8.24828 16.3913 8.194C16.2603 8.13973 16.1412 8.06017 16.0409 7.95989C15.9406 7.8596 15.8611 7.74054 15.8068 7.60951C15.7525 7.47848 15.7246 7.33804 15.7246 7.19621C15.7246 6.90978 15.8384 6.63507 16.0409 6.43254C16.2435 6.23 16.5182 6.11621 16.8046 6.11621C17.091 6.11621 17.3657 6.23 17.5683 6.43254C17.7708 6.63507 17.8846 6.90978 17.8846 7.19621Z" fill="white"/>
</svg>
