<svg width="230" height="48" viewBox="0 0 230 48" fill="none" xmlns="http://www.w3.org/2000/svg">
<path d="M10.549 38.3807C12.1014 38.8583 14.9086 38.7235 16.8201 38.078L22 36.3107V41.4286C21.6695 41.4801 21.3072 41.5369 20.9704 41.5883C15.7875 42.3836 10.2633 42.0529 4.82694 40.3667C-0.244176 39.0257 -1.09065 36.2328 1.2213 34.6197C3.36053 33.13 6.99204 32.014 6.99204 32.014L22 27V32.7143L11.2002 36.3501C9.28825 36.9927 9.00032 37.9068 10.549 38.3807Z" fill="white"/>
<path d="M61.4442 36.2347C60.2223 37.7945 57.2363 38.9086 57.2363 38.9086L35 47V41.0347L51.3636 35.1237C53.2212 34.4509 53.508 33.4977 51.9994 32.9986C50.4908 32.4982 47.7639 32.6412 45.9057 33.3137L35 37.2076V31.0175L35.6257 30.8028C35.6257 30.8028 38.7806 29.6702 43.2068 29.17C47.639 28.6835 53.0656 29.2378 57.3235 30.8764C62.1235 32.413 62.6631 34.6781 61.4442 36.2347Z" fill="white"/>
<path d="M37.4688 26.7495V11.7483C37.4688 9.9917 37.1383 8.37357 35.4479 7.91339C34.1543 7.50061 33.355 8.68085 33.355 10.4377V48L23 44.7833V0C27.405 0.798607 33.8151 2.689 37.2648 3.82172C46.0284 6.77159 49 10.4377 49 18.6957C49 26.7465 43.9228 29.8006 37.4688 26.7495Z" fill="white"/>
<path d="M207.213 34.3614C207.213 34.4841 207.117 34.5782 207.004 34.5782H179.099C178.871 34.5782 178.752 34.5224 178.72 34.4375C178.687 34.3037 178.761 34.2062 178.924 34.0939L206.698 16.8461C206.892 16.7259 207.213 16.7446 207.213 17.1291V34.3614ZM219.785 34.5886L213.608 34.584H213.822C213.705 34.584 213.608 34.4871 213.608 34.3741V14.1891C213.608 11.0874 211.479 10.0706 208.493 11.9309L172.648 34.137C171.238 35.0096 170.765 35.9948 171.106 36.7248C171.4 37.3521 172.174 37.7895 173.725 37.7895L207.017 37.7922C207.11 37.7992 207.185 37.8637 207.208 37.9502V40.7832C207.208 40.9029 207.301 41 207.413 41H213.399C213.511 41 213.608 40.9029 213.608 40.7832V38.009C213.608 37.8891 213.705 37.7922 213.817 37.7922H219.785C219.902 37.7922 220 37.6946 220 37.5777V34.7955C220 34.6855 219.902 34.5886 219.785 34.5886Z" fill="white"/>
<path d="M116.752 27.1297H92.1301C89.8564 27.1297 88.268 29.104 88.268 31.9298V40.7887C88.268 40.9059 88.1766 41 88.0628 41H82.2087C82.0954 41 82.0029 40.9082 82.0029 40.7887L82 31.9298C82 27.3633 85.0044 23.9228 88.9918 23.9228H114.677C117.43 23.9228 118.735 21.8883 118.735 19.0644C118.735 16.2386 117.426 14.2045 114.677 14.2045H82.2087C82.092 14.2045 82 14.11 82 13.9937V11.2078C82 11.0939 82.092 11 82.2052 11H116.752C122.291 11 125 14.5062 125 19.0708C125 23.6324 122.291 27.1297 116.752 27.1297Z" fill="white"/>
<path d="M173.797 14.2039H156.693C153.931 14.2039 152.618 16.2364 152.618 19.0632V32.9396C152.618 37.5042 149.889 41 144.325 41H124.207C124.092 41 124 40.9059 124 40.7887V38.0039C124 37.8844 124.092 37.7929 124.202 37.7929H142.243C145.007 37.7929 146.32 35.7609 146.32 32.9366V19.069C146.32 14.5097 149.044 11.0028 154.608 11.0028L173.797 11C173.908 11 174 11.0936 174 11.2108V13.9959C174 14.1091 173.91 14.2039 173.797 14.2039Z" fill="white"/>
</svg>
