<svg width="89" height="44" viewBox="0 0 89 44" fill="none" xmlns="http://www.w3.org/2000/svg">
<g clip-path="url(#clip0_77_2261)">
<path d="M0.909098 43.2928H8.18623V12.0751H0.909098V43.2928ZM4.53308 7.98116C6.81267 7.98116 8.5954 6.21407 8.5954 4.00532C8.5954 1.76701 6.81267 0 4.53308 0C2.28274 0 0.5 1.76709 0.5 4.00532C0.5 6.21414 2.28274 7.98116 4.53308 7.98116ZM32.4151 0.0881359C20.1114 0.0881359 12.3956 8.54058 12.3956 22.0588C12.3956 35.577 20.1107 44 32.4151 44C44.6895 44 52.4054 35.577 52.4054 22.0588C52.4054 8.54058 44.6903 0.0881359 32.4151 0.0881359ZM32.4151 6.56737C39.9259 6.56737 44.7187 12.5754 44.7187 22.0586C44.7187 31.5123 39.9258 37.5205 32.4151 37.5205C24.875 37.5205 20.1114 31.5125 20.1114 22.0586C20.1114 12.5755 24.8752 6.56737 32.4151 6.56737ZM55.4751 31.3359C55.7966 39.1701 62.1677 43.9999 71.8705 43.9999C82.0702 43.9999 88.5 38.9343 88.5 30.8647C88.5 24.5328 84.876 20.9692 76.3131 18.9961L71.4617 17.877C66.2887 16.64 64.1554 14.9908 64.1554 12.1635C64.1554 8.6294 67.3702 6.27333 72.1338 6.27333C76.956 6.27333 80.2582 8.65888 80.6091 12.6347H87.7985C87.6232 5.15418 81.4858 0.088362 72.1925 0.088362C63.0154 0.088362 56.4982 5.18335 56.4982 12.7229C56.4982 18.7898 60.1806 22.5596 67.9541 24.3563L73.4193 25.6521C78.7383 26.9185 80.9009 28.6855 80.9009 31.7484C80.9009 35.2825 77.3646 37.8153 72.2798 37.8153C67.1361 37.8153 63.2494 35.2531 62.7818 31.3361H55.4755L55.4751 31.3359Z" fill="white"/>
</g>
<defs>
<clipPath id="clip0_77_2261">
<rect width="88" height="44" fill="white" transform="translate(0.5)"/>
</clipPath>
</defs>
</svg>
