<svg width="250" height="52" viewBox="0 0 250 52" fill="none" xmlns="http://www.w3.org/2000/svg">
<g clip-path="url(#clip0_77_2209)">
<path d="M23.667 25H52.667V0L23.667 4.05824V25Z" fill="white"/>
<path d="M22.667 25V4L0.666992 7.14843V25H22.667Z" fill="white"/>
<path d="M22.667 27H0.666992V44.9687L22.667 48V27Z" fill="white"/>
<path d="M23.667 27V48.0445L52.667 52V27H23.667Z" fill="white"/>
<path d="M110.667 11.0675L101.309 45H96.762L89.9413 20.1837C89.6777 19.2383 89.513 18.1241 89.4471 16.7398H89.3482C89.2164 17.9215 89.0187 19.0357 88.7222 20.1162L81.8685 44.9662H77.3544L67.667 11.0338H71.9176L78.9689 37.0655C79.2655 38.2135 79.4632 39.3615 79.562 40.4757H79.6609C79.7268 39.5303 79.9574 38.3823 80.3528 37.0655L87.7007 11.0338H91.457L98.4425 37.2344C98.7061 38.2135 98.9038 39.2602 99.0026 40.3744H99.1015C99.1674 39.564 99.398 38.4836 99.7275 37.1331L106.482 11H110.667V11.0675Z" fill="white"/>
<path d="M117.667 12.4427C117.667 13.1359 117.48 13.7301 117.08 14.2252C116.68 14.6874 116.2 14.9184 115.667 14.9184C115.107 14.9184 114.627 14.6874 114.254 14.2252C113.88 13.7631 113.667 13.1689 113.667 12.4427C113.667 11.7825 113.854 11.2214 114.227 10.7262C114.6 10.2311 115.08 10 115.667 10C116.227 10 116.707 10.2311 117.107 10.7262C117.454 11.1883 117.667 11.7495 117.667 12.4427ZM117.134 44H114.067V20.299H117.134V44Z" fill="white"/>
<path d="M142.667 45H139.001V31.1073C139.001 25.9443 137.216 23.3628 133.677 23.3628C131.86 23.3628 130.362 24.0761 129.15 25.5367C127.939 26.9973 127.333 28.8315 127.333 31.1073V45H123.667V20.6114H127.333V24.6535H127.429C129.15 21.5625 131.637 20 134.92 20C137.439 20 139.352 20.8832 140.659 22.6155C141.966 24.3478 142.635 26.8274 142.635 30.0543V45H142.667Z" fill="white"/>
<path d="M170.667 44.4339H166.851V40.371H166.751C164.993 43.4681 162.272 45 158.555 45C155.536 45 153.147 43.901 151.355 41.7364C149.563 39.5717 148.667 36.6744 148.667 33.0444C148.667 29.0814 149.662 25.9177 151.62 23.5199C153.611 21.1221 156.233 19.9232 159.551 19.9232C162.803 19.9232 165.192 21.222 166.685 23.7863H166.785V9H170.601V44.4339H170.667ZM166.884 33.6439V30.1138C166.884 28.1489 166.221 26.4838 164.926 25.185C163.632 23.8862 162.04 23.2202 160.148 23.2202C157.859 23.2202 156.034 24.086 154.673 25.7845C153.313 27.4829 152.649 29.8474 152.649 32.8779C152.649 35.6087 153.279 37.7734 154.54 39.3719C155.801 40.9704 157.527 41.7697 159.684 41.7697C161.774 41.7697 163.5 41.0037 164.86 39.4718C166.187 37.9399 166.884 36.0083 166.884 33.6439Z" fill="white"/>
<path d="M198.667 32.4003C198.667 36.1902 197.579 39.2487 195.37 41.5426C193.16 43.8364 190.236 45 186.531 45C182.928 45 180.038 43.8697 177.896 41.6423C175.755 39.3816 174.667 36.4561 174.667 32.766C174.667 28.8098 175.755 25.7181 177.964 23.4242C180.174 21.1303 183.2 20 187.075 20C190.712 20 193.534 21.0971 195.574 23.3245C197.647 25.5186 198.667 28.5439 198.667 32.4003ZM194.69 32.5332C194.69 29.5412 194.01 27.2473 192.65 25.6516C191.29 24.0559 189.353 23.258 186.837 23.258C184.321 23.258 182.35 24.0891 180.888 25.7181C179.426 27.3471 178.712 29.6742 178.712 32.633C178.712 35.492 179.46 37.7194 180.922 39.3152C182.384 40.9109 184.355 41.742 186.871 41.742C189.421 41.742 191.358 40.9442 192.718 39.3817C194.01 37.7527 194.69 35.492 194.69 32.5332Z" fill="white"/>
<path d="M233.667 20.0334L226.379 44H222.345L217.328 26.8428C217.159 26.242 217.023 25.5077 216.955 24.6398H216.853C216.82 25.1739 216.65 25.9082 216.345 26.7761L210.921 43.9666H207.023L199.667 20H203.769L208.786 38.025C208.955 38.6592 209.057 39.3602 209.125 40.1613H209.328C209.362 39.5605 209.498 38.8261 209.769 37.9583L215.362 20H218.921L223.972 38.0584C224.142 38.6592 224.243 39.3936 224.311 40.1947H224.514C224.548 39.4604 224.684 38.726 224.887 38.0584L229.836 20H233.667V20.0334Z" fill="white"/>
<path d="M249.667 38.0519C249.667 40.113 248.905 41.8085 247.381 43.0718C245.857 44.3684 243.826 45 241.318 45C239.159 45 237.286 44.5346 235.667 43.5705V39.4814C237.477 41.0106 239.445 41.7753 241.572 41.7753C244.461 41.7753 245.921 40.6782 245.921 38.4508C245.921 37.5532 245.635 36.8218 245.064 36.2567C244.492 35.6915 243.223 34.9269 241.223 33.9628C239.191 33.0652 237.794 32.1011 236.937 31.0705C236.111 30.0399 235.699 28.6769 235.699 26.9481C235.699 24.9867 236.461 23.3245 237.953 21.9947C239.477 20.6649 241.381 20 243.699 20C245.508 20 247.127 20.3657 248.556 21.1303V24.9867C247.064 23.8564 245.35 23.2912 243.381 23.2912C242.175 23.2912 241.223 23.5904 240.492 24.2221C239.762 24.8537 239.381 25.6516 239.381 26.6157C239.381 27.6795 239.667 28.4774 240.238 29.0426C240.81 29.6077 241.953 30.2726 243.73 31.0705C245.889 32.0346 247.413 33.0319 248.302 34.0957C249.223 35.1263 249.667 36.4561 249.667 38.0519Z" fill="white"/>
</g>
<defs>
<clipPath id="clip0_77_2209">
<rect width="249" height="52" fill="white" transform="translate(0.666992)"/>
</clipPath>
</defs>
</svg>
