<svg width="188" height="44" viewBox="0 0 188 44" fill="none" xmlns="http://www.w3.org/2000/svg">
<path d="M1 43.2914H8.29363V24.1391C8.29363 20.3618 10.7538 17.6172 14.2691 17.6172C17.6666 17.6172 19.7758 19.7718 19.7758 23.2537V43.2914H26.864V23.9615C26.864 20.2145 29.2657 17.6172 32.7802 17.6172C36.3539 17.6172 38.3455 19.8005 38.3455 23.6367V43.2914H45.6391V21.8372C45.6391 15.582 41.626 11.4202 35.5043 11.4202C31.0226 11.4202 27.3327 13.8407 25.8382 17.7056H25.662C24.52 13.6926 21.3857 11.4202 16.9925 11.4202C12.7746 11.4202 9.49412 13.8112 8.14667 17.4412H8.00045V12.011H1V43.2914ZM61.6031 38.2449C58.4403 38.2449 56.3317 36.6222 56.3317 34.0544C56.3317 31.5765 58.3518 29.9825 61.867 29.7461L69.0429 29.3034V31.6936C69.0429 35.4709 65.7331 38.2449 61.6031 38.2449ZM59.406 43.793C63.3899 43.793 67.286 41.6981 69.0729 38.3046H69.2191V43.2914H76.2488V21.7488C76.2488 15.4634 71.2399 11.3613 63.5369 11.3613C55.6284 11.3613 50.6787 15.5518 50.3563 21.3945H57.1221C57.5907 18.798 59.7877 17.1156 63.2437 17.1156C66.8466 17.1156 69.0437 19.0042 69.0437 22.2799V24.5228L60.842 24.995C53.2852 25.4672 49.0381 28.8017 49.0381 34.3498C49.0381 39.9855 53.4014 43.793 59.406 43.793ZM108.264 23.1653C107.767 16.5853 102.699 11.3613 94.4975 11.3613C85.477 11.3613 79.6186 17.6467 79.6186 27.6504C79.6186 37.8022 85.4763 43.9101 94.5567 43.9101C102.348 43.9101 107.708 39.3064 108.294 32.3123H101.41C100.737 35.8539 98.3344 37.9783 94.6445 37.9783C90.0165 37.9783 87.0292 34.201 87.0292 27.6497C87.0292 21.217 89.9873 17.3211 94.586 17.3211C98.4814 17.3211 100.795 19.8292 101.381 23.1645L108.264 23.1653ZM130.789 0C118.459 0 110.726 8.46941 110.726 22.0147C110.726 35.5601 118.458 44 130.79 44C143.092 44 150.825 35.5601 150.825 22.0147C150.825 8.46941 143.093 0 130.789 0ZM130.789 6.49239C138.318 6.49239 143.121 12.5126 143.121 22.0147C143.121 31.4874 138.317 37.5076 130.79 37.5076C123.233 37.5076 118.459 31.4874 118.459 22.0147C118.459 12.5126 123.233 6.49239 130.79 6.49239H130.789ZM153.902 31.3106C154.224 39.1598 160.609 44 170.333 44C180.556 44 187 38.9241 187 30.8385C187 24.4941 183.368 20.9231 174.785 18.9461L169.923 17.825C164.739 16.5853 162.601 14.9323 162.601 12.0994C162.601 8.55856 165.823 6.19776 170.597 6.19776C175.43 6.19776 178.74 8.58802 179.092 12.5715H186.297C186.121 5.07666 179.97 0.000755446 170.656 0.000755446C161.458 0.000755446 154.927 5.10537 154.927 12.6599C154.927 18.7391 158.617 22.5164 166.408 24.3166L171.886 25.616C177.217 26.8844 179.384 28.6552 179.384 31.7238C179.384 35.2654 175.839 37.803 170.744 37.803C165.589 37.803 161.693 35.236 161.224 31.3106H153.902Z" fill="white"/>
</svg>
