<svg width="203" height="44" viewBox="0 0 203 44" fill="none" xmlns="http://www.w3.org/2000/svg">
<g clip-path="url(#clip0_77_2264)">
<path d="M0.5 27.5C0.5 25.1842 0.879866 23.0235 1.6396 21.0179C2.39933 19.0122 3.46295 17.2651 4.83048 15.7763C6.19799 14.2876 7.83395 13.1194 9.73837 12.2716C11.6428 11.4239 13.7295 11 15.9986 11C17.7206 11 19.2857 11.2585 20.6937 11.7754C22.1018 12.2923 23.4642 13.1401 24.7811 14.3186V11.6203H32.5V43.3797H24.7811V40.6814C23.4642 41.86 22.1018 42.7077 20.6937 43.2246C19.2857 43.7415 17.7206 44 15.9986 44C13.7295 44 11.6428 43.5761 9.73837 42.7284C7.83395 41.8807 6.19799 40.7124 4.83048 39.2237C3.46295 37.735 2.39933 35.9878 1.6396 33.9822C0.879866 31.9765 0.5 29.8158 0.5 27.5ZM17.0014 36.5874C17.6092 36.5874 18.2474 36.5202 18.9159 36.3858C19.5845 36.2515 20.2581 36.024 20.9368 35.7035C21.6155 35.383 22.279 34.954 22.9274 34.4163C23.5756 33.8788 24.1935 33.2171 24.7811 32.4314V22.5686C24.1935 21.7829 23.5756 21.1264 22.9274 20.5992C22.279 20.0719 21.6155 19.6429 20.9368 19.312C20.2581 18.9812 19.5845 18.7486 18.9159 18.6142C18.2474 18.4798 17.6092 18.4126 17.0014 18.4126C15.8061 18.4126 14.6867 18.6401 13.6434 19.0949C12.6 19.5498 11.6934 20.1856 10.9236 21.0024C10.1537 21.8191 9.55096 22.7806 9.11539 23.8868C8.67979 24.993 8.462 26.1974 8.462 27.5C8.462 28.8027 8.67979 30.0071 9.11539 31.1133C9.55096 32.2195 10.1537 33.1809 10.9236 33.9977C11.6934 34.8144 12.6 35.4502 13.6434 35.9051C14.6867 36.36 15.8061 36.5874 17.0014 36.5874Z" fill="white"/>
<path d="M52.0028 18.7482C48.3579 18.7752 45.1919 21.346 45.1919 25.1609V43H37.5V25.3755C37.5429 18.0262 43.8309 11.099 51.8926 11H52.1074C60.1691 11.099 66.4571 18.0262 66.5 25.3755V43H58.8081V25.1609C58.8081 21.346 55.6421 18.7752 51.9972 18.7482" fill="white"/>
<path d="M70.5 27.4612C70.5 25.1399 70.8799 22.9741 71.6396 20.9637C72.3993 18.9534 73.463 17.2021 74.8305 15.7098C76.198 14.2176 77.8339 13.0467 79.7384 12.1969C81.6428 11.3472 83.7295 10.9223 85.9986 10.9223C87.7206 10.9223 89.2907 11.1814 90.7089 11.6995C92.1271 12.2176 93.4845 13.057 94.7811 14.2176V2H102.5V43.3782H94.7811V40.7047C93.4845 41.886 92.1271 42.7306 90.7089 43.2383C89.2907 43.7461 87.7206 44 85.9986 44C83.7295 44 81.6428 43.5751 79.7384 42.7254C77.8339 41.8757 76.198 40.7047 74.8305 39.2124C73.463 37.7202 72.3993 35.9689 71.6396 33.9586C70.8799 31.9482 70.5 29.7824 70.5 27.4612ZM87.0014 36.5699C87.6092 36.57 88.2474 36.5026 88.916 36.3679C89.5845 36.2332 90.2581 36.0052 90.9368 35.6839C91.6155 35.3627 92.279 34.9327 92.9274 34.3938C93.5756 33.8549 94.1936 33.1917 94.7811 32.4041V22.5181C94.1936 21.7306 93.5756 21.0726 92.9274 20.544C92.279 20.0156 91.6155 19.5855 90.9368 19.2539C90.2581 18.9223 89.5845 18.6891 88.916 18.5544C88.2474 18.4197 87.6092 18.3524 87.0014 18.3523C85.8061 18.3524 84.6868 18.5803 83.6434 19.0363C82.6 19.4923 81.6934 20.1296 80.9236 20.9482C80.1537 21.7669 79.551 22.7306 79.1154 23.8394C78.6798 24.9482 78.462 26.1555 78.462 27.4612C78.462 28.7669 78.6798 29.9741 79.1154 31.0829C79.551 32.1917 80.1537 33.1555 80.9236 33.9741C81.6934 34.7928 82.6 35.4301 83.6434 35.886C84.6868 36.342 85.8061 36.57 87.0014 36.5699Z" fill="white"/>
<path d="M139.015 36.5874C140.18 36.5874 141.278 36.3651 142.309 35.9206C143.341 35.476 144.24 34.8506 145.006 34.0442C145.772 33.2378 146.374 32.2815 146.813 31.1753C147.253 30.0691 147.472 28.844 147.472 27.5C147.472 26.1767 147.247 24.962 146.798 23.8557C146.349 22.7495 145.736 21.7933 144.96 20.9868C144.183 20.1805 143.285 19.5498 142.263 19.0949C141.242 18.6401 140.159 18.4126 139.015 18.4126C137.851 18.4126 136.753 18.6401 135.721 19.0949C134.69 19.5498 133.791 20.1805 133.025 20.9868C132.259 21.7933 131.651 22.7495 131.202 23.8557C130.753 24.962 130.528 26.1767 130.528 27.5C130.528 28.844 130.747 30.0691 131.187 31.1753C131.626 32.2815 132.228 33.2378 132.994 34.0442C133.76 34.8506 134.659 35.476 135.691 35.9206C136.722 36.3651 137.831 36.5874 139.015 36.5874ZM139.015 44C136.748 44 134.613 43.5865 132.611 42.7594C130.61 41.9323 128.858 40.7796 127.357 39.3012C125.855 37.8228 124.67 36.0757 123.802 34.0597C122.934 32.0437 122.5 29.8572 122.5 27.5C122.5 25.2049 122.934 23.0545 123.802 21.0489C124.67 19.0433 125.85 17.2961 127.341 15.8073C128.832 14.3186 130.584 13.1452 132.596 12.2871C134.608 11.4291 136.748 11 139.015 11C141.283 11 143.417 11.4291 145.419 12.2871C147.421 13.1452 149.168 14.3186 150.659 15.8073C152.15 17.2961 153.33 19.0433 154.198 21.0489C155.066 23.0545 155.5 25.2049 155.5 27.5C155.5 29.8572 155.066 32.0437 154.198 34.0597C153.33 36.0757 152.145 37.8228 150.643 39.3012C149.142 40.7796 147.396 41.9323 145.404 42.7594C143.412 43.5865 141.283 44 139.015 44Z" fill="white"/>
<path d="M162.484 10C161.807 10 161.167 9.86773 160.563 9.60317C159.96 9.33866 159.431 8.97888 158.976 8.52381C158.521 8.06881 158.161 7.53972 157.897 6.93651C157.632 6.33339 157.5 5.69317 157.5 5.01587C157.5 4.33867 157.632 3.69317 157.897 3.07936C158.161 2.46565 158.521 1.93127 158.976 1.47619C159.431 1.02121 159.96 0.661427 160.563 0.396833C161.167 0.132323 161.807 5.055e-05 162.484 0C163.161 5.055e-05 163.807 0.132272 164.421 0.396833C165.034 0.661427 165.569 1.02121 166.024 1.47619C166.479 1.93127 166.839 2.46565 167.103 3.07936C167.368 3.69317 167.5 4.33867 167.5 5.01587C167.5 5.69317 167.368 6.33339 167.103 6.93651C166.839 7.53972 166.479 8.06881 166.024 8.52381C165.569 8.97888 165.034 9.33866 164.421 9.60317C163.807 9.86776 163.161 10 162.484 10Z" fill="white"/>
<path d="M158.5 12H166.5V43H158.5V12Z" fill="white"/>
<path d="M170.5 27.4612C170.5 25.1399 170.88 22.9741 171.64 20.9637C172.399 18.9534 173.463 17.2021 174.83 15.7098C176.198 14.2176 177.834 13.0467 179.738 12.1969C181.643 11.3472 183.729 10.9223 185.999 10.9223C187.721 10.9223 189.291 11.1814 190.709 11.6995C192.127 12.2176 193.484 13.057 194.781 14.2176V2H202.5V43.3782H194.781V40.7047C193.484 41.886 192.127 42.7306 190.709 43.2383C189.291 43.7461 187.721 44 185.999 44C183.729 44 181.643 43.5751 179.738 42.7254C177.834 41.8757 176.198 40.7047 174.83 39.2124C173.463 37.7202 172.399 35.9689 171.64 33.9586C170.88 31.9482 170.5 29.7824 170.5 27.4612ZM187.001 36.5699C187.609 36.57 188.247 36.5026 188.916 36.3679C189.585 36.2332 190.258 36.0052 190.937 35.6839C191.616 35.3627 192.279 34.9327 192.927 34.3938C193.576 33.8549 194.194 33.1917 194.781 32.4041V22.5181C194.194 21.7306 193.576 21.0726 192.927 20.544C192.279 20.0156 191.616 19.5855 190.937 19.2539C190.258 18.9223 189.585 18.6891 188.916 18.5544C188.247 18.4197 187.609 18.3524 187.001 18.3523C185.806 18.3524 184.687 18.5803 183.643 19.0363C182.6 19.4923 181.693 20.1296 180.924 20.9482C180.154 21.7669 179.551 22.7306 179.115 23.8394C178.68 24.9482 178.462 26.1555 178.462 27.4612C178.462 28.7669 178.68 29.9741 179.115 31.0829C179.551 32.1917 180.154 33.1555 180.924 33.9741C181.693 34.7928 182.6 35.4301 183.643 35.886C184.687 36.342 185.806 36.57 187.001 36.5699Z" fill="white"/>
<path d="M122.5 18.8045C117.045 18.8045 114.64 21.4797 114.64 25.2711V43H106.5V25.4843C106.545 18.1804 110.984 11 122.5 11" fill="white"/>
</g>
<defs>
<clipPath id="clip0_77_2264">
<rect width="202" height="44" fill="white" transform="translate(0.5)"/>
</clipPath>
</defs>
</svg>
