<svg width="384" height="44" viewBox="0 0 384 44" fill="none" xmlns="http://www.w3.org/2000/svg">
<g clip-path="url(#clip0_77_2235)">
<path d="M69.5 1H76.5638L88.5773 22.8497L100.591 1H107.5V36.948H101.725V9.37572L91.2069 28.4682H85.7931L75.2748 9.42775V37H69.5V1Z" fill="white"/>
<path d="M125.816 38C123.163 38 120.867 37.4296 118.878 36.237C116.888 35.0963 115.255 33.3852 114.184 31.3111C113.061 29.237 112.5 26.8 112.5 24.1037C112.5 21.3555 113.061 18.9185 114.133 16.7926C115.204 14.6667 116.735 13.0074 118.673 11.8148C120.612 10.6222 122.857 10 125.357 10C127.857 10 130 10.6222 131.837 11.8148C133.622 13.0074 135.051 14.7185 136.02 16.8444C136.99 19.0222 137.5 21.563 137.5 24.4667V26.0741H118.163C118.52 28.2519 119.388 29.963 120.765 31.2074C122.143 32.4518 123.929 33.0741 126.02 33.0741C127.704 33.0741 129.184 32.8148 130.408 32.2963C131.633 31.7778 132.806 31 133.878 29.963L136.888 33.7481C133.878 36.6518 130.204 38 125.816 38ZM130 16.7926C128.827 15.5482 127.245 14.9259 125.306 14.9259C123.418 14.9259 121.837 15.5481 120.561 16.8444C119.286 18.0889 118.469 19.8 118.163 21.9259H132.041C131.837 19.6963 131.173 17.9852 130 16.7926Z" fill="white"/>
<path d="M146.098 15.5482H140.5V10.8296H146.098V3H151.967V10.8296H160.446V15.5482H151.967V27.5259C151.967 29.4963 152.348 30.9481 153.054 31.7778C153.761 32.6074 155.011 33.0741 156.75 33.0741C157.402 33.0741 158.054 33.0741 158.707 32.9704C159.25 32.9185 159.848 32.8148 160.5 32.7111V37.3778C159.739 37.5852 159.033 37.7407 158.272 37.8445C157.402 37.9482 156.533 38 155.663 38C149.359 38 146.207 34.7333 146.207 28.1481V15.5482H146.098Z" fill="white"/>
<path d="M188.5 37.3778H183.107V33.6444C182.191 35.0444 180.919 36.1333 179.443 36.8593C177.968 37.637 176.289 38 174.406 38C172.116 38 170.03 37.3778 168.25 36.1852C166.469 34.9926 165.044 33.3333 164.026 31.2074C163.009 29.0815 162.5 26.6963 162.5 24C162.5 21.2519 163.009 18.8667 164.077 16.7407C165.095 14.6667 166.57 13.0074 168.402 11.8148C170.234 10.6222 172.371 10 174.711 10C176.492 10 178.12 10.363 179.545 11.037C180.97 11.7111 182.191 12.7481 183.107 14.0444V10.6222H188.5V37.3778ZM183.005 20.0593C182.394 18.5556 181.478 17.363 180.206 16.4815C178.934 15.6 177.459 15.1852 175.831 15.1852C173.49 15.1852 171.608 15.963 170.234 17.5704C168.86 19.1778 168.148 21.3556 168.148 24.0519C168.148 26.8 168.809 28.9778 170.183 30.5852C171.506 32.1926 173.338 32.9704 175.627 32.9704C177.306 32.9704 178.833 32.5037 180.156 31.6222C181.478 30.7407 182.445 29.4963 183.005 28.0444V20.0593Z" fill="white"/>
<path d="M234.186 9.97346C235.729 12.7744 236.5 15.9385 236.5 19.5694C236.5 22.9409 235.78 25.9493 234.34 28.6466C232.9 31.3438 230.997 33.4704 228.58 35.0784C230.946 38.0868 232.9 41.0434 234.494 44H227.911C226.677 41.6659 225.34 39.4873 223.797 37.3607C222.1 37.8794 220.3 38.1387 218.5 38.1387C215.877 38.1387 213.511 37.6719 211.3 36.7901C209.14 35.9083 207.237 34.6116 205.591 32.8999C203.946 31.1882 202.711 29.2171 201.837 26.9867C200.963 24.7045 200.5 22.2666 200.5 19.5694C200.5 16.8721 200.963 14.3824 201.837 12.152C202.66 9.97346 203.946 7.95055 205.591 6.23885C207.186 4.57901 209.14 3.2304 211.3 2.34862C213.511 1.41496 215.877 1 218.5 1C221.997 1 225.083 1.77805 227.809 3.38601C230.534 4.9421 232.694 7.22436 234.186 9.97346ZM208.214 26.3643C209.243 28.3353 210.631 29.8914 212.431 30.9807C214.231 32.07 216.289 32.6405 218.551 32.6405C220.866 32.6405 222.923 32.07 224.723 30.9807C226.523 29.8914 227.911 28.3353 228.94 26.3643C229.969 24.3932 230.483 22.111 230.483 19.5175C230.483 16.924 229.969 14.6417 228.94 12.6707C227.911 10.6996 226.523 9.14355 224.723 8.05429C222.923 6.96502 220.917 6.39445 218.551 6.39445C216.237 6.39445 214.18 6.96502 212.431 8.05429C210.631 9.14355 209.243 10.6996 208.214 12.6707C207.186 14.6417 206.671 16.924 206.671 19.5175C206.671 22.111 207.186 24.3932 208.214 26.3643Z" fill="white"/>
<path d="M265.5 37.3852H260.188V33.5939C258.184 36.5655 255.478 38 251.971 38C248.914 38 246.609 37.0266 244.955 35.0797C243.352 33.1328 242.5 30.315 242.5 26.6774V11H247.912V26.0114C247.912 28.4706 248.313 30.2638 249.164 31.4421C250.016 32.6205 251.319 33.1841 253.123 33.1841C254.676 33.1841 256.08 32.7742 257.282 31.9545C258.485 31.1347 259.437 29.9564 260.088 28.4706V11H265.5V37.3852Z" fill="white"/>
<path d="M284.816 38C282.163 38 279.867 37.4296 277.878 36.237C275.888 35.0963 274.255 33.3852 273.184 31.3111C272.061 29.237 271.5 26.8 271.5 24.1037C271.5 21.3555 272.061 18.9185 273.133 16.7926C274.204 14.6667 275.735 13.0074 277.673 11.8148C279.612 10.6222 281.857 10 284.357 10C286.857 10 289 10.6222 290.837 11.8148C292.622 13.0074 294.051 14.7185 295.02 16.8444C295.99 19.0222 296.5 21.563 296.5 24.4667V26.0741H277.163C277.52 28.2519 278.388 29.963 279.765 31.2074C281.143 32.4518 282.929 33.0741 285.02 33.0741C286.704 33.0741 288.184 32.8148 289.408 32.2963C290.633 31.7778 291.806 31 292.878 29.963L295.888 33.7481C292.878 36.6518 289.204 38 284.816 38ZM289 16.7926C287.827 15.5482 286.245 14.9259 284.306 14.9259C282.418 14.9259 280.837 15.5481 279.561 16.8444C278.286 18.0889 277.469 19.8 277.163 21.9259H291.041C290.888 19.6963 290.173 17.9852 289 16.7926Z" fill="white"/>
<path d="M319.539 35.7143C317.566 37.2208 314.919 38 311.544 38C308.741 38 306.249 37.4805 304.172 36.4935C302.096 35.5065 300.538 34.1558 299.5 32.4935L303.29 29.2208C304.069 30.4156 305.159 31.3506 306.56 32.0779C307.962 32.7532 309.571 33.1169 311.492 33.1169C315.074 33.1169 316.839 32.0779 316.839 30C316.839 29.1169 316.528 28.3896 315.957 27.8701C315.386 27.3507 314.399 26.9351 313.05 26.7273L307.91 25.8441C305.47 25.4286 303.601 24.5454 302.355 23.2467C301.057 21.948 300.434 20.2857 300.434 18.2078C300.434 15.7143 301.421 13.7403 303.394 12.2338C305.366 10.7273 308.066 10 311.388 10C313.828 10 316.009 10.5195 317.982 11.5065C319.902 12.4935 321.356 13.7922 322.29 15.4026L318.397 18.3117C317.722 17.2727 316.788 16.3896 315.49 15.8182C314.192 15.1948 312.738 14.8831 311.025 14.8831C309.416 14.8831 308.222 15.1429 307.339 15.7143C306.457 16.2857 306.041 17.013 306.041 18C306.041 18.8312 306.301 19.5065 306.82 19.974C307.339 20.4416 308.222 20.7532 309.468 21.013L315.282 22.0519C317.618 22.4675 319.383 23.3507 320.629 24.7013C321.875 26.052 322.498 27.7143 322.498 29.7403C322.55 32.1818 321.512 34.2078 319.539 35.7143Z" fill="white"/>
<path d="M330.098 15.5482H324.5V10.8296H330.098V3H335.967V10.8296H344.446V15.5482H335.967V27.5259C335.967 29.4963 336.348 30.9481 337.054 31.7778C337.761 32.6074 339.011 33.0741 340.75 33.0741C341.402 33.0741 342.054 33.0741 342.706 32.9704C343.25 32.9185 343.848 32.8148 344.5 32.7111V37.3778C343.739 37.5852 343.033 37.7407 342.272 37.8445C341.402 37.9482 340.533 38 339.663 38C333.359 38 330.207 34.7333 330.207 28.1481V15.5482H330.098Z" fill="white"/>
<path d="M17.607 0H17.5535L17.5 6.26316H17.5535C21.7282 6.26316 24.993 9.52631 32.0577 21.2105L32.4859 21.9474L32.5394 22L36.5 16.1579L36.4465 16.1053C35.5366 14.6316 34.6268 13.2632 33.7704 12C32.7535 10.5789 31.8437 9.26316 30.8803 8.10526C26.1704 2.21052 22.2634 0 17.607 0Z" fill="white"/>
<path d="M17.3929 0C12.6786 0 8.5 3.1194 5.5 7.88059V7.93532L11.0179 11C11.0179 11 11.0179 10.9453 11.0714 10.9453C12.8393 8.26368 15.0357 6.51243 17.3393 6.51243H17.3929L17.5 0C17.3929 0 17.3929 0 17.3929 0Z" fill="white"/>
<path d="M5.87159 8C3.84973 11 2.31967 14.6207 1.5 18.5517V18.6034L7.8388 20V19.9483C8.49454 16.4828 9.80601 13.3276 11.4454 10.8966C11.4454 10.8966 11.4454 10.8448 11.5 10.8448L5.87159 8Z" fill="white"/>
<path d="M7.5 20.35L1.15625 19V19.05C0.718752 21.15 0.5 23.25 0.5 25.4V25.45L7.00781 26V25.95C7.00781 25.85 7.00781 25.7 7.00781 25.6C6.95312 23.8 7.17188 22.1 7.5 20.35Z" fill="white"/>
<path d="M7.5 26.5789C7.38618 25.9474 7.32927 25.2632 7.27236 24.6316V24.579L0.5 24V24.0526C0.5 25.3684 0.61382 26.6842 0.841462 27.9474V28L7.5 26.5789Z" fill="white"/>
<path d="M8.47521 30.4366C7.75019 29.6479 7.24826 28.5211 6.9694 27.0563V27L0.5 28.5211V28.5775C1.00194 31.169 1.95004 33.3099 3.28854 34.9437C3.28854 34.9437 3.28854 35 3.34431 35L8.47521 30.4366C8.53098 30.493 8.47521 30.493 8.47521 30.4366Z" fill="white"/>
<path d="M25.6037 14C22.0467 19.4638 19.9126 22.8851 19.9126 22.8851C15.187 30.2894 13.561 31.9745 10.9187 31.9745C9.80081 31.9745 8.88618 31.566 8.22561 30.8511C8.22561 30.8511 8.22561 30.8511 8.1748 30.8L3.5 34.834C3.5 34.834 3.5 34.8851 3.55081 34.8851C5.27845 36.8766 7.71748 38 10.7154 38C15.2886 38 18.5407 35.8553 24.3841 25.6425C24.3841 25.6425 26.8232 21.3532 28.5 18.3915C27.4329 16.6553 26.4675 15.2255 25.6037 14Z" fill="white"/>
<path d="M32.2692 5C31.2436 6.05755 30.3718 7.16546 29.5 8.27338C30.3718 9.38129 31.2949 10.6403 32.2692 12C33.3974 10.2878 34.4231 8.92806 35.4487 7.8705C35.4487 7.8705 35.4487 7.8705 35.5 7.82014L32.2692 5Z" fill="white"/>
<path d="M50.5 4.30344C47.9059 1.59999 44.8353 0 41.5529 0C38.1118 0 35.2 1.9862 32.5529 4.85517C32.5529 4.85517 32.5529 4.91034 32.5 4.91034L35.8353 8C35.8353 8 35.8353 8 35.8882 7.94482C37.6353 6.06896 39.2765 5.13103 41.1294 5.13103C43.1412 5.13103 44.9941 6.12414 46.6353 7.83449C46.6353 7.83449 46.6353 7.83448 46.6882 7.88965L50.5 4.30344Z" fill="white"/>
<path d="M57.5 24.8906C57.3458 16.25 54.5187 8.59375 50.3037 4.05469C50.3037 4.05469 50.3037 4.05469 50.2523 4L46.5 7.55469C46.5 7.55469 46.5 7.55469 46.5514 7.60938C49.7383 11.0547 51.8972 17.5078 52.1028 24.9453V25H57.5C57.5 24.8906 57.5 24.8906 57.5 24.8906Z" fill="white"/>
<path d="M58.5 24.0524V24H52.5244V24.0524C52.5244 24.3665 52.5244 24.733 52.5244 25.0471C52.5244 26.9843 52.1829 28.555 51.5569 29.7068C51.5569 29.7068 51.5569 29.7592 51.5 29.7592L55.939 34C55.939 34 55.939 33.9476 55.9959 33.9476C57.5894 31.644 58.4431 28.5026 58.4431 24.6283C58.5 24.4189 58.5 24.2618 58.5 24.0524Z" fill="white"/>
<path d="M51.5826 29C51.0868 30.0201 50.3926 30.6644 49.5 30.9866L51.2851 37C51.5331 36.8926 51.7314 36.8389 51.9793 36.7315C52.0289 36.6779 52.1281 36.6779 52.1777 36.6242C52.2273 36.6242 52.2769 36.5705 52.2769 36.5705C53.4669 35.9262 54.4587 34.9597 55.2025 33.8322C55.2521 33.7785 55.3017 33.6711 55.3512 33.6175C55.4008 33.5638 55.4008 33.5101 55.4504 33.4564C55.4504 33.4564 55.4504 33.4027 55.5 33.4027L51.5826 29Z" fill="white"/>
<path d="M48.2442 31.336C47.6473 31.336 47.0504 31.224 46.4535 31L44.5 37.44C45.5853 37.832 46.7791 38 48.1357 38C49.2752 38 50.4147 37.832 51.5 37.44L49.5465 31.168C49.1124 31.28 48.6783 31.336 48.2442 31.336Z" fill="white"/>
<path d="M44.204 29L39.5 33.6486C39.5 33.6486 39.5 33.7027 39.556 33.7027C41.18 35.3784 42.748 36.4054 44.484 37L46.5 30.8378C45.772 30.5135 45.044 29.9189 44.204 29Z" fill="white"/>
<path d="M44.5 30.196C43.168 28.6307 41.5164 25.9858 38.9057 21.7756L35.4959 16.054L35.4426 16L31.5 21.9915L31.5533 22.0455L33.9508 26.1477C36.2951 30.0881 38.1598 32.9489 40.0246 34.946C40.0246 34.946 40.0246 34.946 40.0779 35L44.5 30.196C44.5 30.25 44.5 30.25 44.5 30.196Z" fill="white"/>
<path d="M358.838 38V32.7399L371.152 21.3598C372.199 20.3483 373.078 19.4379 373.787 18.6286C374.508 17.8194 375.054 17.027 375.426 16.2514C375.797 15.4647 375.983 14.6161 375.983 13.7057C375.983 12.6941 375.752 11.8231 375.291 11.0925C374.829 10.3507 374.198 9.78308 373.399 9.38969C372.599 8.98507 371.693 8.78276 370.679 8.78276C369.62 8.78276 368.697 8.99631 367.909 9.42341C367.12 9.85051 366.512 10.4631 366.084 11.2611C365.657 12.0591 365.443 13.0088 365.443 14.1103H358.5C358.5 11.8512 359.012 9.88985 360.037 8.2264C361.062 6.56294 362.498 5.27601 364.345 4.36561C366.191 3.4552 368.32 3 370.73 3C373.207 3 375.364 3.43834 377.199 4.31503C379.046 5.18048 380.482 6.38311 381.507 7.92293C382.532 9.46275 383.044 11.2274 383.044 13.2168C383.044 14.5206 382.785 15.8075 382.267 17.0776C381.76 18.3476 380.854 19.7582 379.547 21.3092C378.241 22.8491 376.4 24.698 374.024 26.856L368.973 31.7958V32.0318H383.5V38H358.838Z" fill="white"/>
</g>
<defs>
<clipPath id="clip0_77_2235">
<rect width="383" height="44" fill="white" transform="translate(0.5)"/>
</clipPath>
</defs>
</svg>
