<svg width="263" height="52" viewBox="0 0 263 52" fill="none" xmlns="http://www.w3.org/2000/svg">
<g clip-path="url(#clip0_77_2223)">
<path d="M167.235 41L157.26 27.5601L147.296 41H143.187L155.18 24.758L144.222 10H148.331L157.26 22.0388L166.189 10H170.287L159.341 24.758L171.333 41H167.235ZM89.4891 40.9896L77.4864 24.758L88.4435 10H84.3346L75.4058 22.0388L66.4875 10H62.389L73.3357 24.758L61.333 40.9896H65.4419L75.4058 27.5497L85.3802 40.9896H89.4891Z" fill="white"/>
<path d="M112.903 26.8458C112.285 26.3237 111.593 25.8851 110.849 25.5405C113.165 24.3084 114.612 21.9068 114.612 19.2964C114.612 17.302 113.878 10.8072 104.435 10.8072H91.7223V24.2562H87.4882C86.9432 24.9662 85.696 26.6787 85.214 27.3887H91.7223V41.9968H104.435C111.321 41.9968 115.597 38.5092 115.597 32.8915C115.607 30.4377 114.674 28.3598 112.903 26.8458ZM95.2437 14.0651H104.446C106.929 14.0651 111.101 14.6811 111.101 19.0249C111.101 22.3036 108.669 24.2562 104.446 24.2562H95.2437V14.0651ZM104.435 38.7494H95.2332V27.3992H104.435C107.925 27.3992 112.096 28.3598 112.096 32.8289C112.096 37.9767 107.296 38.7494 104.435 38.7494ZM132.145 10.0972C123.352 10.0972 117.2 16.8008 117.2 26.3968C117.2 36.0032 123.342 42.6964 132.145 42.6964C140.928 42.6964 147.059 36.0032 147.059 26.3968C147.059 16.8008 140.928 10.0972 132.145 10.0972ZM132.145 39.3968C125.448 39.3968 120.753 34.0506 120.753 26.3968C120.753 18.743 125.448 13.3968 132.145 13.3968C138.832 13.3968 143.506 18.743 143.506 26.3968C143.506 34.0506 138.832 39.3968 132.145 39.3968ZM8.12 7.4763L8.09904 7.49718C3.12084 12.3839 0.322571 19.0458 0.333051 26C0.322571 31.6907 2.19857 37.2249 5.66758 41.7462C5.69903 41.7879 5.76191 41.8192 5.80383 41.7879C5.84575 41.7566 5.85623 41.7044 5.83527 41.6522C3.84399 35.5229 14.01 20.6642 19.2712 14.441C19.2921 14.4201 19.3131 14.3992 19.3131 14.3679C19.3131 14.3365 19.2921 14.3052 19.2607 14.2843C10.4152 5.52369 8.05712 7.52851 8.08856 7.49718M44.7386 7.4763L44.7595 7.49718C49.7377 12.3735 52.5255 19.0458 52.515 26C52.5255 31.6907 50.6495 37.2249 47.1805 41.7462C47.1491 41.7879 47.0862 41.8192 47.0443 41.7879C47.0023 41.7566 47.0023 41.7044 47.0128 41.6522C49.0041 35.5229 38.8381 20.6538 33.5874 14.4305C33.5665 14.4096 33.5455 14.3887 33.5455 14.3574C33.5455 14.3157 33.5665 14.2948 33.5979 14.2739C42.4434 5.51325 44.791 7.52851 44.7595 7.49718M26.4293 0C31.6905 0 36.0294 1.44096 40.0224 3.8008C40.0748 3.82168 40.0853 3.88433 40.0643 3.9261C40.0434 3.96787 39.991 3.97831 39.9385 3.96787C34.887 2.88193 27.2048 7.2257 26.4817 7.66425C26.4607 7.67469 26.4503 7.68514 26.4293 7.68514C26.4083 7.68514 26.3874 7.67469 26.3769 7.66425C24.4485 6.55743 17.3532 2.8506 12.8781 3.99919C12.8257 4.00964 12.7733 3.99919 12.7523 3.95743C12.7314 3.90522 12.7523 3.85301 12.7943 3.83213C16.7873 1.44096 21.1786 0 26.4293 0ZM26.4293 20.8522C26.4607 20.8522 26.4922 20.8731 26.5131 20.894C34.321 26.8144 47.6836 41.4329 43.6067 45.5678L43.6172 45.5574V45.5678H43.6067C38.8486 49.7237 32.7385 52.0104 26.4188 52C20.0991 52.0104 13.989 49.7237 9.24141 45.5678C5.16452 41.4329 18.5271 26.804 26.335 20.894C26.3559 20.8731 26.3979 20.8522 26.4293 20.8522ZM232.81 10.8177V36.4104L213.882 10.7968L210.78 10.7863V41.955H214.259V16.9261L232.81 41.9759L236.3 41.9863V10.8177H232.81ZM192.701 10.0867C183.908 10.0867 177.756 16.7903 177.756 26.3863C177.756 35.9927 183.908 42.6964 192.701 42.6964C201.484 42.6964 207.615 35.9927 207.615 26.3863C207.615 16.8008 201.484 10.0867 192.701 10.0867ZM192.701 39.3968C186.004 39.3968 181.309 34.0506 181.309 26.3863C181.309 18.7325 186.004 13.3863 192.701 13.3863C199.388 13.3863 204.062 18.7325 204.062 26.3863C204.051 34.0401 199.388 39.3968 192.701 39.3968ZM243.72 38.9269V27.3992H260.939V24.3502H243.72V13.8458H262.113V10.7968H240.219V41.9759H262.333V38.9269H243.72Z" fill="white"/>
</g>
<defs>
<clipPath id="clip0_77_2223">
<rect width="262" height="52" fill="white" transform="translate(0.333008)"/>
</clipPath>
</defs>
</svg>
