<svg width="192" height="35" viewBox="0 0 192 35" fill="none" xmlns="http://www.w3.org/2000/svg">
<path d="M23.1478 22.7678L28.6744 32.7621H18.4199L13.7536 24.221H9.33276V32.7621H0V2.48584H17.0692C24.1301 2.48584 28.613 6.35802 28.613 13.3216C28.613 17.8025 26.5254 21.0124 23.1478 22.7678ZM9.33276 10.3545V16.3492H15.964C17.9288 16.3492 19.1567 15.1987 19.1567 13.3216C19.1567 11.4444 17.9288 10.3545 15.964 10.3545H9.33276ZM58.3305 35L30.3936 27.552L37.8844 0L51.8528 3.72398L65.8212 7.44797L58.3305 35ZM53.0501 14.7143L45.2524 12.5949L43.1648 20.2851L50.9626 22.4051L53.0501 14.7143ZM97.8114 24.221C97.8114 30.0341 94.0662 32.7621 88.233 32.7621H69.936V2.48584H87.6192C93.4518 2.48584 97.197 5.45292 97.197 10.6604C97.197 13.9302 95.9694 16.1108 93.636 17.6246C96.2766 18.7713 97.8114 21.073 97.8114 24.221ZM79.023 9.75217V14.233H85.098C86.7558 14.233 87.7386 13.5064 87.7386 11.9321C87.7386 10.4788 86.7558 9.75217 85.098 9.75217H79.023ZM79.023 25.4958H85.8384C87.435 25.4958 88.359 24.6481 88.359 23.1942C88.359 21.6204 87.438 20.8938 85.8384 20.8938H79.023V25.4958ZM102.416 2.48584H111.748V23.7978H125.133V32.7621H102.415L102.416 2.48584ZM159.457 17.6246C159.457 20.7384 158.521 23.7823 156.767 26.3713C155.013 28.9603 152.519 30.9783 149.603 32.1699C146.686 33.3615 143.476 33.6733 140.379 33.0658C137.282 32.4583 134.438 30.9589 132.205 28.7571C129.973 26.5553 128.452 23.75 127.836 20.6961C127.22 17.6421 127.537 14.4766 128.744 11.5998C129.953 8.723 131.999 6.26417 134.624 4.53424C137.249 2.8043 140.336 1.88095 143.494 1.88095C145.591 1.87684 147.668 2.28115 149.607 3.07069C151.545 3.86022 153.307 5.01945 154.79 6.48187C156.273 7.94429 157.449 9.68109 158.25 11.5927C159.051 13.5043 159.461 15.553 159.457 17.6214V17.6246ZM150.125 17.6246C150.125 13.8697 147.116 10.9026 143.494 10.9026C139.871 10.9026 136.862 13.8697 136.862 17.6246C136.862 21.3795 139.871 24.3459 143.494 24.3459C147.116 24.3459 150.125 21.3751 150.125 17.6214V17.6246ZM181.93 17.1396L192 32.7621H180.883L175.36 23.8577L169.65 32.7621H158.352L168.851 17.5023L159.212 2.48584H170.325L175.421 10.6604L180.334 2.48584H191.386L181.93 17.1396Z" fill="#191919"/>
</svg>
