<svg width="570" height="108" viewBox="0 0 570 108" fill="none" xmlns="http://www.w3.org/2000/svg">
<g clip-path="url(#clip0_60_1916)">
<path d="M68.7199 69.6044L85.127 100.159L54.6842 100.159L40.8309 74.0471L27.7066 74.0471L27.7066 100.159L1.67528e-06 100.159L1.27113e-07 7.59958L50.6741 7.59958C71.6364 7.59958 84.9448 19.4374 84.9448 40.726C84.9448 54.4247 78.7473 64.2378 68.7199 69.6044ZM27.7066 31.6552L27.7066 49.9818L47.393 49.9817C53.2261 49.9817 56.8716 46.4646 56.8716 40.726C56.8716 34.9873 53.2261 31.6552 47.393 31.6552L27.7066 31.6552ZM173.169 107L90.231 84.2305L112.469 -1.87822e-06L153.938 11.3847L195.407 22.7695L173.169 107ZM157.493 44.9837L134.343 38.5045L128.145 62.0145L151.295 68.4955L157.493 44.9837ZM290.378 74.0471C290.378 91.8185 279.259 100.159 261.942 100.159L207.622 100.159L207.622 7.59958L260.12 7.59958C277.435 7.59958 288.554 16.6703 288.554 32.5904C288.554 42.5867 284.909 49.253 277.982 53.881C285.821 57.3865 290.378 64.423 290.378 74.0471ZM234.6 29.8138L234.6 43.5123L252.635 43.5123C257.556 43.5123 260.474 41.2911 260.474 36.478C260.474 32.0351 257.556 29.8138 252.635 29.8138L234.6 29.8138ZM234.6 77.9443L254.833 77.9443C259.573 77.9443 262.316 75.3528 262.316 70.9078C262.316 66.0968 259.582 63.8753 254.833 63.8753L234.6 63.8753L234.6 77.9443ZM304.049 7.59958L331.751 7.59958L331.751 72.7532L371.489 72.7532L371.489 100.159L304.045 100.159L304.049 7.59958ZM473.389 53.881C473.389 63.4003 470.61 72.7059 465.401 80.6209C460.195 88.5359 452.792 94.705 444.133 98.3479C435.473 101.991 425.943 102.944 416.75 101.087C407.557 99.2296 399.112 94.6457 392.484 87.9144C385.856 81.1833 381.342 72.6072 379.513 63.2709C377.686 53.9344 378.624 44.2569 382.21 35.4622C385.797 26.6674 391.871 19.1505 399.666 13.8618C407.459 8.57315 416.622 5.75034 425.997 5.75034C432.222 5.73776 438.391 6.97379 444.146 9.38752C449.899 11.8012 455.129 15.3452 459.532 19.816C463.935 24.2868 467.427 29.5965 469.805 35.4406C472.183 41.2845 473.401 47.5479 473.389 53.8712L473.389 53.881ZM445.683 53.881C445.683 42.4017 436.75 33.3309 425.997 33.3309C415.241 33.3309 406.308 42.4017 406.308 53.881C406.308 65.3602 415.241 74.429 425.997 74.429C436.75 74.429 445.683 65.3466 445.683 53.8712L445.683 53.881ZM540.104 52.398L570 100.159L536.997 100.159L520.601 72.9365L503.648 100.159L470.108 100.159L501.278 53.5069L472.66 7.59957L505.652 7.59957L520.782 32.5904L535.365 7.59957L568.176 7.59957L540.104 52.398Z" fill="#F1F7FF"/>
</g>
<defs>
<clipPath id="clip0_60_1916">
<rect width="570" height="108" fill="white"/>
</clipPath>
</defs>
</svg>
